<svg width="145" height="42" viewBox="0 0 145 42" fill="none" xmlns="http://www.w3.org/2000/svg">
<g clip-path="url(#clip0)">
<path d="M42.39 42H0V0H42.39V42ZM1 41H41.39V1H1V41Z" fill="white"/>
<path d="M52.02 13.96H57.28V18.77H59.49V13.96H64.79V28H59.49V22.62H57.28V28H52.02V13.96Z" fill="white"/>
<path d="M80.63 20.88C80.63 25.1 78.77 28.37 73.39 28.37C68.58 28.37 66.47 25.3 66.47 20.92C66.47 16.81 68.58 13.59 73.63 13.59C78.68 13.59 80.63 16.93 80.63 20.88ZM71.97 20.88C71.97 23.58 72.26 24.88 73.57 24.88C74.88 24.88 75.13 23.63 75.13 20.79C75.13 18.25 74.88 17.12 73.55 17.12C72.22 17.12 72 18.22 72 20.84" fill="white"/>
<path d="M84.69 17.54H81.27V13.96H93.28V17.54H89.93V28H84.69V17.54Z" fill="white"/>
<path d="M105.34 22.68H99.77V24.44H106.08L105.53 28H94.76V13.96H105.57V17.54H99.77V19.1H105.34V22.68Z" fill="white"/>
<path d="M107.51 13.96H112.77V24.36H118.3L117.79 28H107.51V13.96Z" fill="white"/>
<path d="M130.05 22.68H124.48V24.44H130.78L130.23 28H119.47V13.96H130.27V17.54H124.48V19.1H130.05V22.68Z" fill="white"/>
<path d="M136.58 23.52C136.66 24.64 137.19 25.12 138.13 25.12C138.89 25.12 139.26 24.79 139.26 24.19C139.26 23.59 138.79 23.19 136.91 22.64C133.1 21.64 132.16 20.06 132.16 18.22C132.16 15.13 134.69 13.59 138.09 13.59C141.49 13.59 144.09 15.13 144.19 18.24H139.42C139.42 17.48 139.06 16.83 138.17 16.83C137.62 16.83 137.17 17.09 137.17 17.56C137.17 18.22 137.66 18.48 139.44 18.98C143.31 20.04 144.44 21.35 144.44 23.66C144.44 27.06 141.55 28.37 138.01 28.37C133.86 28.37 131.83 26.26 131.69 23.52H136.58Z" fill="white"/>
<path d="M16.85 18C16.852 18.4889 16.7088 18.9675 16.4386 19.375C16.1684 19.7825 15.7833 20.1006 15.3322 20.2891C14.881 20.4776 14.3841 20.5279 13.9043 20.4338C13.4245 20.3396 12.9835 20.1051 12.637 19.7601C12.2906 19.4151 12.0544 18.975 11.9582 18.4956C11.8621 18.0162 11.9104 17.519 12.0971 17.0671C12.2837 16.6152 12.6003 16.2288 13.0067 15.957C13.4131 15.6851 13.8911 15.54 14.38 15.54C14.7039 15.5387 15.0249 15.6013 15.3245 15.7244C15.6241 15.8474 15.8965 16.0284 16.126 16.257C16.3555 16.4855 16.5376 16.7572 16.6618 17.0563C16.7861 17.3554 16.85 17.6761 16.85 18Z" fill="white"/>
<path d="M17.1 21.57V28H11.84V22.23L17.1 21.57Z" fill="white"/>
<path d="M19.21 14H26C29.13 14 31.5 15.68 31.5 18.67C31.5 21.84 29.19 23.38 25.81 23.38H24.31V28H19.21V14ZM24.31 20H25.13C26.07 20 26.33 19.44 26.33 18.61C26.33 17.78 26 17.3 25.09 17.3H24.31V20Z" fill="white"/>
</g>
<defs>
<clipPath id="clip0">
<rect width="144.5" height="41.96" fill="white"/>
</clipPath>
</defs>
</svg>
